<svg width="398" height="511" viewBox="0 0 398 511" fill="none" xmlns="http://www.w3.org/2000/svg">
<path d="M396.8 127.9C396.8 127.8 396.8 127.8 396.7 127.7C396.2 126.5 395.5 125.5 394.7 124.5C394.7 124.5 394.7 124.4 394.6 124.4L350.8 78.8V42.2C350.8 19.2 332.1 0.5 309.1 0.5H43.2C19.6 0.5 0.5 19.7 0.5 43.2V429.7C0.5 453.3 19.7 472.4 43.2 472.4H47.4C49.3 494.2 67.7 511.4 89.9 511.4H354.7C378.3 511.4 397.4 492.2 397.4 468.7V131.6C397.5 130.3 397.2 129 396.8 127.9ZM318.9 75.8L362.6 121.2H318.9V75.8ZM21.4 429.8V43.2C21.4 31.1 31.2 21.3 43.3 21.3H309.2C320.7 21.3 330 30.6 330 42.1V57.1L316 42.7C316 42.7 315.9 42.7 315.9 42.6C315.6 42.3 315.2 42 314.9 41.7C314.7 41.6 314.6 41.4 314.4 41.3C313.9 40.9 313.3 40.6 312.7 40.4C312.7 40.4 312.7 40.4 312.6 40.4C311.3 39.9 310 39.6 308.5 39.6H90C66.4 39.6 47.3 58.8 47.3 82.3V451.7H43.3C31.2 451.6 21.4 441.8 21.4 429.8ZM354.8 490.6H90C77.9 490.6 68.1 480.8 68.1 468.7V82.2C68.1 70.1 77.9 60.3 90 60.3H298V131.6C298 137.4 302.7 142 308.4 142H376.6V468.7C376.6 480.8 366.8 490.6 354.8 490.6Z" fill="#EDEDED"/>
<path d="M235.7 142.1H255.4C261.2 142.1 265.8 137.4 265.8 131.7C265.8 125.9 261.1 121.3 255.4 121.3H235.7C229.9 121.3 225.3 126 225.3 131.7C225.2 137.4 229.9 142.1 235.7 142.1Z" fill="#EDEDED"/>
<path d="M113.3 142.1H179.1C184.9 142.1 189.5 137.4 189.5 131.7C189.5 125.9 184.8 121.3 179.1 121.3H113.3C107.5 121.3 102.9 126 102.9 131.7C102.8 137.4 107.5 142.1 113.3 142.1Z" fill="#EDEDED"/>
<path d="M323.8 386.1H179.1C173.3 386.1 168.7 390.8 168.7 396.5C168.7 402.2 173.4 406.9 179.1 406.9H323.8C329.6 406.9 334.2 402.2 334.2 396.5C334.2 390.8 329.6 386.1 323.8 386.1Z" fill="#EDEDED"/>
<path d="M138.8 386.1H113.3C107.5 386.1 102.9 390.8 102.9 396.5C102.9 402.2 107.6 406.9 113.3 406.9H138.8C144.6 406.9 149.2 402.2 149.2 396.5C149.2 390.8 144.6 386.1 138.8 386.1Z" fill="#EDEDED"/>
<path d="M323.8 320.9H284.7C278.9 320.9 274.3 325.6 274.3 331.3C274.3 337 279 341.7 284.7 341.7H323.8C329.6 341.7 334.2 337 334.2 331.3C334.2 325.6 329.6 320.9 323.8 320.9Z" fill="#EDEDED"/>
<path d="M113.3 341.8H228.7C234.5 341.8 239.1 337.1 239.1 331.4C239.1 325.7 234.4 321 228.7 321H113.3C107.5 321 102.9 325.7 102.9 331.4C102.9 337.1 107.5 341.8 113.3 341.8Z" fill="#EDEDED"/>
<path d="M323.8 255.6H245.5C239.7 255.6 235.1 260.3 235.1 266C235.1 271.7 239.8 276.4 245.5 276.4H323.8C329.6 276.4 334.2 271.7 334.2 266C334.2 260.3 329.6 255.6 323.8 255.6Z" fill="#EDEDED"/>
<path d="M113.3 276.5H193C198.8 276.5 203.4 271.8 203.4 266.1C203.4 260.4 198.7 255.7 193 255.7H113.2C107.4 255.7 102.8 260.4 102.8 266.1C102.8 271.8 107.5 276.5 113.3 276.5Z" fill="#EDEDED"/>
<path d="M323.8 188.4H179.1C173.3 188.4 168.7 193.1 168.7 198.8C168.7 204.6 173.4 209.2 179.1 209.2H323.8C329.6 209.2 334.2 204.5 334.2 198.8C334.2 193.1 329.6 188.4 323.8 188.4Z" fill="#EDEDED"/>
<path d="M113.3 209.3H132.1C137.9 209.3 142.5 204.6 142.5 198.9C142.5 193.1 137.8 188.5 132.1 188.5H113.3C107.5 188.5 102.9 193.2 102.9 198.9C102.8 204.6 107.5 209.3 113.3 209.3Z" fill="#EDEDED"/>
</svg>
